<mxfile host="app.diagrams.net" modified="2024-05-24T16:12:02.871Z" agent="Mozilla/5.0 (Windows NT 10.0; Win64; x64) AppleWebKit/537.36 (KHTML, like Gecko) Chrome/124.0.0.0 Safari/537.36" etag="dnvZ7uYk_i48lmEtf3hT" version="24.4.8" type="github">
  <diagram id="C5RBs43oDa-KdzZeNtuy" name="Page-1">
    <mxGraphModel dx="1050" dy="530" grid="1" gridSize="10" guides="1" tooltips="1" connect="1" arrows="1" fold="1" page="1" pageScale="1" pageWidth="827" pageHeight="1169" math="0" shadow="0">
      <root>
        <mxCell id="WIyWlLk6GJQsqaUBKTNV-0" />
        <mxCell id="WIyWlLk6GJQsqaUBKTNV-1" parent="WIyWlLk6GJQsqaUBKTNV-0" />
        <mxCell id="wMEW244yOxdJIl7k4n5K-20" style="edgeStyle=orthogonalEdgeStyle;rounded=0;orthogonalLoop=1;jettySize=auto;html=1;exitX=0.5;exitY=1;exitDx=0;exitDy=0;entryX=0;entryY=0.25;entryDx=0;entryDy=0;" edge="1" parent="WIyWlLk6GJQsqaUBKTNV-1" source="wMEW244yOxdJIl7k4n5K-0" target="wMEW244yOxdJIl7k4n5K-13">
          <mxGeometry relative="1" as="geometry" />
        </mxCell>
        <mxCell id="wMEW244yOxdJIl7k4n5K-0" value="Start" style="ellipse;whiteSpace=wrap;html=1;aspect=fixed;" vertex="1" parent="WIyWlLk6GJQsqaUBKTNV-1">
          <mxGeometry x="10" y="90" width="60" height="60" as="geometry" />
        </mxCell>
        <mxCell id="wMEW244yOxdJIl7k4n5K-26" style="edgeStyle=orthogonalEdgeStyle;rounded=0;orthogonalLoop=1;jettySize=auto;html=1;exitX=1;exitY=0.5;exitDx=0;exitDy=0;entryX=0.25;entryY=0;entryDx=0;entryDy=0;" edge="1" parent="WIyWlLk6GJQsqaUBKTNV-1" source="wMEW244yOxdJIl7k4n5K-1" target="wMEW244yOxdJIl7k4n5K-25">
          <mxGeometry relative="1" as="geometry" />
        </mxCell>
        <mxCell id="wMEW244yOxdJIl7k4n5K-1" value="&lt;br&gt;&lt;div style=&quot;color: #cccccc;background-color: #1f1f1f;font-family: Consolas, &#39;Courier New&#39;, monospace;font-weight: normal;font-size: 14px;line-height: 19px;white-space: pre;&quot;&gt;&lt;div&gt;&lt;span style=&quot;color: #dcdcaa;&quot;&gt;GetArrayThreeSimvol&lt;/span&gt;&lt;/div&gt;&lt;/div&gt;метод по сортировке символов из массива;&lt;div&gt;- считаем количество символов по условию, получаем длину нового массива;&lt;/div&gt;&lt;div&gt;- создаём массив ранее выясненной длины и записываем в него символы по требованию;&lt;br&gt;&lt;br&gt;&lt;/div&gt;" style="shape=process;whiteSpace=wrap;html=1;backgroundOutline=1;" vertex="1" parent="WIyWlLk6GJQsqaUBKTNV-1">
          <mxGeometry x="350" y="35" width="230" height="170" as="geometry" />
        </mxCell>
        <mxCell id="wMEW244yOxdJIl7k4n5K-2" value="&lt;br&gt;&lt;span style=&quot;color: rgb(220, 220, 170); font-family: Consolas, &amp;quot;Courier New&amp;quot;, monospace; font-size: 14px; font-style: normal; font-variant-ligatures: normal; font-variant-caps: normal; font-weight: 400; letter-spacing: normal; orphans: 2; text-align: center; text-indent: 0px; text-transform: none; widows: 2; word-spacing: 0px; -webkit-text-stroke-width: 0px; white-space: pre; background-color: rgb(31, 31, 31); text-decoration-thickness: initial; text-decoration-style: initial; text-decoration-color: initial; display: inline !important; float: none;&quot;&gt;GetArrayStringConsole&lt;/span&gt;&lt;br&gt;Метод по выделению из строки в консоле в массив по символу &quot;пробел&quot;" style="shape=process;whiteSpace=wrap;html=1;backgroundOutline=1;" vertex="1" parent="WIyWlLk6GJQsqaUBKTNV-1">
          <mxGeometry x="80" y="80" width="215" height="80" as="geometry" />
        </mxCell>
        <mxCell id="wMEW244yOxdJIl7k4n5K-30" value="" style="edgeStyle=orthogonalEdgeStyle;rounded=0;orthogonalLoop=1;jettySize=auto;html=1;" edge="1" parent="WIyWlLk6GJQsqaUBKTNV-1" source="wMEW244yOxdJIl7k4n5K-8" target="wMEW244yOxdJIl7k4n5K-29">
          <mxGeometry relative="1" as="geometry" />
        </mxCell>
        <mxCell id="wMEW244yOxdJIl7k4n5K-8" value="&lt;br&gt;&lt;span style=&quot;forced-color-adjust: none; font-style: normal; font-variant-ligatures: normal; font-variant-caps: normal; font-weight: 400; letter-spacing: normal; orphans: 2; text-align: center; text-indent: 0px; text-transform: none; widows: 2; word-spacing: 0px; -webkit-text-stroke-width: 0px; text-decoration-thickness: initial; text-decoration-style: initial; text-decoration-color: initial; color: rgb(220, 220, 170); font-family: Consolas, &amp;quot;Courier New&amp;quot;, monospace; font-size: 14px; white-space: pre; background-color: rgb(31, 31, 31); float: none; display: inline !important;&quot;&gt;&lt;br&gt;&lt;/span&gt;&lt;div&gt;&lt;span style=&quot;forced-color-adjust: none; font-style: normal; font-variant-ligatures: normal; font-variant-caps: normal; font-weight: 400; letter-spacing: normal; orphans: 2; text-align: center; text-indent: 0px; text-transform: none; widows: 2; word-spacing: 0px; -webkit-text-stroke-width: 0px; text-decoration-thickness: initial; text-decoration-style: initial; text-decoration-color: initial; color: rgb(220, 220, 170); font-family: Consolas, &amp;quot;Courier New&amp;quot;, monospace; font-size: 14px; white-space: pre; background-color: rgb(31, 31, 31); float: none; display: inline !important;&quot;&gt;Print&lt;/span&gt;&lt;br style=&quot;forced-color-adjust: none; color: rgb(0, 0, 0); font-family: Helvetica; font-size: 12px; font-style: normal; font-variant-ligatures: normal; font-variant-caps: normal; font-weight: 400; letter-spacing: normal; orphans: 2; text-align: center; text-indent: 0px; text-transform: none; widows: 2; word-spacing: 0px; -webkit-text-stroke-width: 0px; white-space: normal; background-color: rgb(251, 251, 251); text-decoration-thickness: initial; text-decoration-style: initial; text-decoration-color: initial;&quot;&gt;Метод вывода информации из массива циклически каждого элемента&lt;div&gt;&lt;br&gt;&lt;/div&gt;&lt;/div&gt;" style="shape=process;whiteSpace=wrap;html=1;backgroundOutline=1;" vertex="1" parent="WIyWlLk6GJQsqaUBKTNV-1">
          <mxGeometry x="287.5" y="400" width="190" height="100" as="geometry" />
        </mxCell>
        <mxCell id="wMEW244yOxdJIl7k4n5K-13" value="чтение из консоли в строку&lt;div style=&quot;&quot;&gt;&lt;div style=&quot;color: rgb(204, 204, 204); background-color: rgb(31, 31, 31); font-family: Consolas, &amp;quot;Courier New&amp;quot;, monospace; line-height: 19px; white-space: pre;&quot;&gt;&lt;span style=&quot;color: #569cd6;&quot;&gt;string&lt;/span&gt; &lt;span style=&quot;color: #9cdcfe;&quot;&gt;inStringSimvol&lt;/span&gt; &lt;span style=&quot;color: #d4d4d4;&quot;&gt;=&lt;/span&gt; &lt;span style=&quot;color: #9cdcfe;&quot;&gt;Console&lt;/span&gt;&lt;span style=&quot;color: #d4d4d4;&quot;&gt;.&lt;/span&gt;&lt;span style=&quot;color: #9cdcfe;&quot;&gt;ReadLine&lt;/span&gt;();&lt;/div&gt;&lt;/div&gt;" style="shape=document;whiteSpace=wrap;html=1;boundedLbl=1;" vertex="1" parent="WIyWlLk6GJQsqaUBKTNV-1">
          <mxGeometry x="80" y="205" width="185" height="80" as="geometry" />
        </mxCell>
        <mxCell id="wMEW244yOxdJIl7k4n5K-21" style="edgeStyle=orthogonalEdgeStyle;rounded=0;orthogonalLoop=1;jettySize=auto;html=1;exitX=0.5;exitY=0;exitDx=0;exitDy=0;entryX=0.433;entryY=0.985;entryDx=0;entryDy=0;entryPerimeter=0;" edge="1" parent="WIyWlLk6GJQsqaUBKTNV-1" source="wMEW244yOxdJIl7k4n5K-13" target="wMEW244yOxdJIl7k4n5K-2">
          <mxGeometry relative="1" as="geometry" />
        </mxCell>
        <mxCell id="wMEW244yOxdJIl7k4n5K-24" style="edgeStyle=orthogonalEdgeStyle;rounded=0;orthogonalLoop=1;jettySize=auto;html=1;exitX=0.75;exitY=0;exitDx=0;exitDy=0;entryX=0.5;entryY=1;entryDx=0;entryDy=0;" edge="1" parent="WIyWlLk6GJQsqaUBKTNV-1" source="wMEW244yOxdJIl7k4n5K-22" target="wMEW244yOxdJIl7k4n5K-1">
          <mxGeometry relative="1" as="geometry" />
        </mxCell>
        <mxCell id="wMEW244yOxdJIl7k4n5K-28" style="edgeStyle=orthogonalEdgeStyle;rounded=0;orthogonalLoop=1;jettySize=auto;html=1;exitX=0.5;exitY=1;exitDx=0;exitDy=0;entryX=0.5;entryY=0;entryDx=0;entryDy=0;" edge="1" parent="WIyWlLk6GJQsqaUBKTNV-1" source="wMEW244yOxdJIl7k4n5K-22" target="wMEW244yOxdJIl7k4n5K-8">
          <mxGeometry relative="1" as="geometry" />
        </mxCell>
        <mxCell id="wMEW244yOxdJIl7k4n5K-22" value="заполнение массива&amp;nbsp;&lt;div style=&quot;&quot;&gt;&lt;div style=&quot;color: rgb(204, 204, 204); background-color: rgb(31, 31, 31); font-family: Consolas, &amp;quot;Courier New&amp;quot;, monospace; line-height: 19px; white-space: pre;&quot;&gt;&lt;span style=&quot;color: #569cd6;&quot;&gt;string&lt;/span&gt;[] &lt;span style=&quot;color: #9cdcfe;&quot;&gt;arraySimvol&lt;/span&gt; &lt;span style=&quot;color: #d4d4d4;&quot;&gt;=&lt;/span&gt; &lt;span style=&quot;color: #dcdcaa;&quot;&gt;GetArrayStringConsole&lt;/span&gt;(&lt;span style=&quot;color: #9cdcfe;&quot;&gt;inStringSimvol&lt;/span&gt;);&lt;/div&gt;&lt;/div&gt;" style="shape=parallelogram;perimeter=parallelogramPerimeter;whiteSpace=wrap;html=1;fixedSize=1;" vertex="1" parent="WIyWlLk6GJQsqaUBKTNV-1">
          <mxGeometry x="290" y="280" width="185" height="60" as="geometry" />
        </mxCell>
        <mxCell id="wMEW244yOxdJIl7k4n5K-23" style="edgeStyle=orthogonalEdgeStyle;rounded=0;orthogonalLoop=1;jettySize=auto;html=1;exitX=1;exitY=0.5;exitDx=0;exitDy=0;entryX=0.202;entryY=-0.013;entryDx=0;entryDy=0;entryPerimeter=0;" edge="1" parent="WIyWlLk6GJQsqaUBKTNV-1" source="wMEW244yOxdJIl7k4n5K-2" target="wMEW244yOxdJIl7k4n5K-22">
          <mxGeometry relative="1" as="geometry" />
        </mxCell>
        <mxCell id="wMEW244yOxdJIl7k4n5K-27" style="edgeStyle=orthogonalEdgeStyle;rounded=0;orthogonalLoop=1;jettySize=auto;html=1;exitX=0.5;exitY=1;exitDx=0;exitDy=0;entryX=1;entryY=0.5;entryDx=0;entryDy=0;" edge="1" parent="WIyWlLk6GJQsqaUBKTNV-1" source="wMEW244yOxdJIl7k4n5K-25" target="wMEW244yOxdJIl7k4n5K-8">
          <mxGeometry relative="1" as="geometry" />
        </mxCell>
        <mxCell id="wMEW244yOxdJIl7k4n5K-25" value="Сортировка и заполнение массива&lt;div style=&quot;&quot;&gt;&lt;div style=&quot;color: rgb(204, 204, 204); background-color: rgb(31, 31, 31); font-family: Consolas, &amp;quot;Courier New&amp;quot;, monospace; line-height: 19px; white-space: pre;&quot;&gt;&lt;font style=&quot;font-size: 12px;&quot;&gt;&lt;span style=&quot;color: rgb(220, 220, 170);&quot;&gt;GetArrayThreeSimvol&lt;/span&gt;(&lt;span style=&quot;color: rgb(156, 220, 254);&quot;&gt;arraySimvol&lt;/span&gt;)&lt;/font&gt;&lt;/div&gt;&lt;/div&gt;" style="shape=parallelogram;perimeter=parallelogramPerimeter;whiteSpace=wrap;html=1;fixedSize=1;" vertex="1" parent="WIyWlLk6GJQsqaUBKTNV-1">
          <mxGeometry x="560" y="215" width="240" height="60" as="geometry" />
        </mxCell>
        <mxCell id="wMEW244yOxdJIl7k4n5K-29" value="STOP" style="ellipse;whiteSpace=wrap;html=1;aspect=fixed;" vertex="1" parent="WIyWlLk6GJQsqaUBKTNV-1">
          <mxGeometry x="110" y="410" width="80" height="80" as="geometry" />
        </mxCell>
      </root>
    </mxGraphModel>
  </diagram>
</mxfile>
